/* XPM */
static char *iruka[] = {
/* columns rows colors chars-per-pixel */
"32 32 5 1 ",
"  c #031E21",
". c #004C9D",
"X c #3990D0",
"o c #85CEF4",
"O c #B7D9F3",
/* pixels */
"oooooooooooooooooooooooooooooooo",
"oooooooooooooXXXXooooooooooooooo",
"oooooooooooXXXXXXXXXoooooooooooo",
"oooooooooXXXXXXXXXXXXXoooooooooo",
"oooooooXXXXXXXXXXXXXXXXooooooooo",
"ooooooXXXXXXXXXXXXXXXXXXoooooooo",
"oooooXXX XXXXXXXXXXXXXXXXooooooo",
"ooXXXXXXXXXX XXXXXXXXXXXXXXXoooo",
"oXXXXXXXXXXXXXXXXXXXXXXXXXXXXXXo",
"o.....XXXXXXXXXXXXXXXXXXXXXXXXXo",
"ooOOOO..XX.XXXXXXXXXXX.....XXXoo",
"oooOOOOO..OOOOOOOOXXXXXXXXX..ooo",
"oooooOOOOOOOOOOOOOOOOXXXXXXXX.oo",
"ooooooooOOOOOOOOOOOOOOXXXXX..ooo",
"ooooooooooooOOOOOOOOOOOXX..XXooo",
"ooooooooooooooOOOOOOOOOOXXXXXXoo",
"ooooooooooooooXOOOOOOOOOOXXXXXoo",
"oooooooooooooXXXXOOOOOOOOXXXXooo",
"oooooooooooooXXXXooOOOOOOOXXXooo",
"oooooooooooooXXXooooOOOOOOXXXooo",
"oooooooooooooXoooooooOOOOOXXoooo",
"oooooooooooooooooooooOOOOOXXoooo",
"oooooooooooooooooooooOOOOXXooooo",
"oooooooooooooXXoooooOOOOOXXooooo",
"oooooooooooooXXXoooOOOOXXXoooooo",
"oooooooooooooXXXXOOOOOXXXooooooo",
"oooooooooooooXXXXOOOXXXXoooooooo",
"ooooooooooooooXXXXXXXooooooooooo",
"oooooooooooooXXXXXXooooooooooooo",
"oooooooooooooXXXXooooooooooooooo",
"oooooooooooooXXooooooooooooooooo",
"oooooooooooooooooooooooooooooooo"
};
