/* XPM */
static char *rocket2[] = {
/* columns rows colors chars-per-pixel */
"32 32 7 1 ",
"  c #E32724",
". c #EB726D",
"X c #F5A611",
"o c #FDCE43",
"O c #35B9EF",
"+ c #A09E91",
"@ c #85CEF4",
/* pixels */
"@@@@@@@@@@@@@@@@@@@@@@@@@@@@@@@@",
"@@@@@@@@@@@@@@@@@@@@@@@@@@XXXXX@",
"@@@@@@@@@@@@@@@@@@@@@@@ XXXXXXX@",
"@@@@@@@@@@@@@@@@@@@OO    XXXXXX@",
"@@@@@@@@@@@@@@@@@@OOO     XXXXX@",
"@@@@@@@@@@@@@@@@@OOO       XXXX@",
"@@@@@@@@@@@@@@@  OO         XX@@",
"@@@@@@@@@@@@@@       OOO     X@@",
"@@@@@@@@@@@@@       OOOOO     @@",
"@@@@@XXXXXXX        OOOOO    @@@",
"@@@@@XXXXXX         OOOOO    @@@",
"@@@@@XXXXXX         OOOO    @@@@",
"@@@@@@XXXX                OO@@@@",
"@@@@@@@XX                OOO@@@@",
"@@@@@@@@        XX      OOO@@@@@",
"@@@@@@@@       XXX      OO@@@@@@",
"@@@@@@@@      XXX        @@@@@@@",
"@@@@@@@@+    XXX         @@@@@@@",
"@@@@@@@@++  XXX         @@@@@@@@",
"@@@@@@@@@++XXX         @@@@@@@@@",
"@@@@@@@@@@XXX        X@@@@@@@@@@",
"@@@@@@@@@@XX+       XX@@@@@@@@@@",
"@@@@......@@++     XXX@@@@@@@@@@",
"@@@...oo..@@@++  XXXXX@@@@@@@@@@",
"@@...oooo.@@@@@@@XXXXX@@@@@@@@@@",
"@@...oooo.@@@@@@@@XXXX@@@@@@@@@@",
"@@....oo..@@@@@@@@@XXX@@@@@@@@@@",
"@@@.......@@@@@@@@@@@@@@@@@@@@@@",
"@@@@.....@@@@@@@@@@@@@@@@@@@@@@@",
"@@@@@...@@@@@@@@@@@@@@@@@@@@@@@@",
"@@@@@@@@@@@@@@@@@@@@@@@@@@@@@@@@",
"@@@@@@@@@@@@@@@@@@@@@@@@@@@@@@@@"
};
