/* XPM */
static char *sakana[] = {
/* columns rows colors chars-per-pixel */
"32 32 4 1 ",
"  c #121D22",
". c #1E8BC2",
"X c #20B7FF",
"o c #85CEF4",
/* pixels */
"oooooooooooooooooooooooooooooooo",
"oooooooooooooooooooooooooooooooo",
"oooooooooooooooooooooooooooooooo",
"oooooooooooooooooooooooooooooooo",
"oooooooooooooooooooooooooooooooo",
"oooooooooooooooooooooooooooooooo",
"oooooooooooooooooooooooooooooooo",
"oooooooooooooooooooooooooooooooo",
"oooooooooooooooooooooooooooooooo",
"oooooooooooooooooooooooooooooooo",
"ooooooooooooo....ooooooooooooooo",
"ooooooooooooo......ooooooooooooo",
"ooooooooooXXXXXXXXX.oooooooooooo",
"ooooooooXXXXXXXXXXXXXooooooooooo",
"oooooooXXXX.XXXXXXXXXXoooooXoooo",
"oooooXXX XXX.X.XXXXXXXXooXXXoooo",
"ooooXXXX XXX...XXXXXXXXXXXXXoooo",
"oooooXXXXXXX...XXXXXXXXXXXXXoooo",
"ooooooXXXXXX.X.XXXXXXXXXXXXXoooo",
"oooooooXXXX.XXXXXXXXXooooXXXoooo",
"ooooooooooXXXXXXXXXooooooooXoooo",
"oooooooooooooooo...ooooooooooooo",
"ooooooooooooooooo..ooooooooooooo",
"oooooooooooooooooooooooooooooooo",
"oooooooooooooooooooooooooooooooo",
"oooooooooooooooooooooooooooooooo",
"oooooooooooooooooooooooooooooooo",
"oooooooooooooooooooooooooooooooo",
"oooooooooooooooooooooooooooooooo",
"oooooooooooooooooooooooooooooooo",
"oooooooooooooooooooooooooooooooo",
"oooooooooooooooooooooooooooooooo"
};
