/* XPM */
static char *same[] = {
/* columns rows colors chars-per-pixel */
"32 32 4 1 ",
"  c #353D42",
". c #65AEDC",
"X c #85CEF4",
"o c #DBF0FC",
/* pixels */
"XXXXXXXXXXXXXXXXXXXXXXXXXXXXXXXX",
"XXXXXXXXXXXXXXXXXXXXXXXXXXXXXXXX",
"XXXXXXXXXXXXXXXXXXXXXXXXXXXXXXXX",
"XXXXXXXXXXXXXXXXXXXXXXXXXXXXXXXX",
"XXXXXXXXXXXXXXXXXXXXXXXXXXXXXXXX",
"XXXXXXXXXXXXXXXXXXXXXXXXXXXXXXXX",
"XXXXXXXXXXXXXXXXXX  XXXXXXXXXXXX",
"XXXXXXXXXXXXXXXXX   XXXXXXXXXXXX",
"XXXXXXXXXXXXXXXX    XXXXXXXXXXXX",
"XXXXXXXXXXXXXXX     XXXXXXXXXXXX",
"XXXXXXXXXXXXXX      XXXXXXXXXXXX",
"XXXXXXXXXXXXX        XXXXXXXXXXX",
"XXXXXXXXXXXX         XXXXXXXXXXX",
"XXXXXXXXXXX          XXXXXXXXXXX",
"XXXXXXX.XXX          XXX.XXXXXXX",
"XXXXXX.XXX oo  oo  ooXXXX.XXXXXX",
"XXXXXX.XXooooooooooooooXX.XXXXXX",
"XXXXXX.XXX..oo..oo..ooXXX.XXXXXX",
"XXXXXXX.XXX..........XXX.XXXXXXX",
"XXXXXXXXXXXX........XXXXXXXXXXXX",
"XXXXXXXXXXXXXXXXXXXXXXXXXXXXXXXX",
"XXXXXXXXXXXXXX....XXXXXXXXXXXXXX",
"XXXXXXXXXXXXXXXXXXXXXXXXXXXXXXXX",
"XXXXXXXXXXXXXXX..XXXXXXXXXXXXXXX",
"XXXXXXXXXXXXXXXXXXXXXXXXXXXXXXXX",
"XXXXXXXXXXXXXXXXXXXXXXXXXXXXXXXX",
"XXXXXXXXXXXXXXXXXXXXXXXXXXXXXXXX",
"XXXXXXXXXXXXXXXXXXXXXXXXXXXXXXXX",
"XXXXXXXXXXXXXXXXXXXXXXXXXXXXXXXX",
"XXXXXXXXXXXXXXXXXXXXXXXXXXXXXXXX",
"XXXXXXXXXXXXXXXXXXXXXXXXXXXXXXXX",
"XXXXXXXXXXXXXXXXXXXXXXXXXXXXXXXX"
};
